<?xml version="1.0" encoding="UTF-8" standalone="no"?>
<!-- Created with Inkscape (http://www.inkscape.org/) -->

<svg
   xmlns:dc="http://purl.org/dc/elements/1.1/"
   xmlns:cc="http://creativecommons.org/ns#"
   xmlns:rdf="http://www.w3.org/1999/02/22-rdf-syntax-ns#"
   xmlns:svg="http://www.w3.org/2000/svg"
   xmlns="http://www.w3.org/2000/svg"
   xmlns:sodipodi="http://sodipodi.sourceforge.net/DTD/sodipodi-0.dtd"
   xmlns:inkscape="http://www.inkscape.org/namespaces/inkscape"
   width="320mm"
   height="160mm"
   viewBox="0 0 320 160"
   version="1.1"
   id="svg1265"
   inkscape:version="0.92.1 r15371"
   sodipodi:docname="km07.svg">
  <defs
     id="defs1259">
    <clipPath
       clipPathUnits="userSpaceOnUse"
       id="clipPath6247">
      <rect
         style="opacity:1;fill:#dcddbb;fill-opacity:0.44961243;fill-rule:nonzero;stroke:none;stroke-width:0.40843093;stroke-linecap:round;stroke-linejoin:round;stroke-miterlimit:4;stroke-dasharray:none;stroke-dashoffset:0;stroke-opacity:0.99612403;paint-order:normal"
         id="rect6249"
         width="329.59521"
         height="165.95544"
         x="-3.0238097"
         y="-152.23665"
         rx="0.02558464"
         ry="0.02558464" />
    </clipPath>
  </defs>
  <sodipodi:namedview
     id="base"
     pagecolor="#ffffff"
     bordercolor="#666666"
     borderopacity="1.0"
     inkscape:pageopacity="0.0"
     inkscape:pageshadow="2"
     inkscape:zoom="0.35000001"
     inkscape:cx="880.2517"
     inkscape:cy="463.83729"
     inkscape:document-units="mm"
     inkscape:current-layer="layer1"
     showgrid="false"
     inkscape:window-width="909"
     inkscape:window-height="1034"
     inkscape:window-x="999"
     inkscape:window-y="0"
     inkscape:window-maximized="0"
     units="in"
     inkscape:snap-page="true" />
  <metadata
     id="metadata1262">
    <rdf:RDF>
      <cc:Work
         rdf:about="">
        <dc:format>image/svg+xml</dc:format>
        <dc:type
           rdf:resource="http://purl.org/dc/dcmitype/StillImage" />
        <dc:title></dc:title>
      </cc:Work>
    </rdf:RDF>
  </metadata>
  <g
     inkscape:label="Calque 1"
     inkscape:groupmode="layer"
     id="layer1"
     transform="translate(0,-137)">
    <path
       style="color:#000000;font-style:normal;font-variant:normal;font-weight:normal;font-stretch:normal;font-size:medium;line-height:normal;font-family:sans-serif;font-variant-ligatures:normal;font-variant-position:normal;font-variant-caps:normal;font-variant-numeric:normal;font-variant-alternates:normal;font-feature-settings:normal;text-indent:0;text-align:start;text-decoration:none;text-decoration-line:none;text-decoration-style:solid;text-decoration-color:#000000;letter-spacing:normal;word-spacing:normal;text-transform:none;writing-mode:lr-tb;direction:ltr;text-orientation:mixed;dominant-baseline:auto;baseline-shift:baseline;text-anchor:start;white-space:normal;shape-padding:0;clip-rule:nonzero;display:inline;overflow:visible;visibility:visible;opacity:1;isolation:auto;mix-blend-mode:normal;color-interpolation:sRGB;color-interpolation-filters:linearRGB;solid-color:#000000;solid-opacity:1;vector-effect:none;fill:#000000;fill-opacity:1;fill-rule:nonzero;stroke:none;stroke-width:0.80000001;stroke-linecap:round;stroke-linejoin:round;stroke-miterlimit:4;stroke-dasharray:none;stroke-dashoffset:0;stroke-opacity:1;paint-order:normal;color-rendering:auto;image-rendering:auto;shape-rendering:auto;text-rendering:auto;enable-background:accumulate"
       d="M 0,297.40039 A 0.40004001,0.40004001 0 0 1 -0.40039062,297 V 137 A 0.40004001,0.40004001 0 0 1 0,136.59961 H 320 A 0.40004001,0.40004001 0 0 1 320.40039,137 V 297 A 0.40004001,0.40004001 0 0 1 320,297.40039 Z m 0.40039062,-0.80078 H 319.59961 V 137.40039 H 0.40039062 Z"
       id="rect8359-3-4-4-3-22-8-7-5-5-6-4-7-7-7-7-5"
       inkscape:connector-curvature="0" />
    <path
       style="color:#000000;font-style:normal;font-variant:normal;font-weight:normal;font-stretch:normal;font-size:medium;line-height:normal;font-family:sans-serif;font-variant-ligatures:normal;font-variant-position:normal;font-variant-caps:normal;font-variant-numeric:normal;font-variant-alternates:normal;font-feature-settings:normal;text-indent:0;text-align:start;text-decoration:none;text-decoration-line:none;text-decoration-style:solid;text-decoration-color:#000000;letter-spacing:normal;word-spacing:normal;text-transform:none;writing-mode:lr-tb;direction:ltr;text-orientation:mixed;dominant-baseline:auto;baseline-shift:baseline;text-anchor:start;white-space:normal;shape-padding:0;clip-rule:nonzero;display:inline;overflow:visible;visibility:visible;opacity:1;isolation:auto;mix-blend-mode:normal;color-interpolation:sRGB;color-interpolation-filters:linearRGB;solid-color:#000000;solid-opacity:1;vector-effect:none;fill:#000000;fill-opacity:1;fill-rule:nonzero;stroke:none;stroke-width:1.46500015;stroke-linecap:round;stroke-linejoin:round;stroke-miterlimit:4;stroke-dasharray:none;stroke-dashoffset:0;stroke-opacity:1;paint-order:normal;color-rendering:auto;image-rendering:auto;shape-rendering:auto;text-rendering:auto;enable-background:accumulate"
       d="m 53.224609,158.66797 c -2.692127,0 -4.890625,2.1985 -4.890625,4.89062 0,2.69213 2.198498,4.89063 4.890625,4.89063 2.692128,0 4.890625,-2.1985 4.890625,-4.89063 0,-2.69212 -2.198497,-4.89062 -4.890625,-4.89062 z m 0,1.46484 c 1.900383,0 3.425782,1.5254 3.425782,3.42578 0,1.90039 -1.525399,3.42579 -3.425782,3.42579 -1.900382,0 -3.425781,-1.5254 -3.425781,-3.42579 0,-1.90038 1.525399,-3.42578 3.425781,-3.42578 z"
       id="path4774-70-5-8-4-8"
       inkscape:connector-curvature="0" />
    <path
       style="color:#000000;font-style:normal;font-variant:normal;font-weight:normal;font-stretch:normal;font-size:medium;line-height:normal;font-family:sans-serif;font-variant-ligatures:normal;font-variant-position:normal;font-variant-caps:normal;font-variant-numeric:normal;font-variant-alternates:normal;font-feature-settings:normal;text-indent:0;text-align:start;text-decoration:none;text-decoration-line:none;text-decoration-style:solid;text-decoration-color:#000000;letter-spacing:normal;word-spacing:normal;text-transform:none;writing-mode:lr-tb;direction:ltr;text-orientation:mixed;dominant-baseline:auto;baseline-shift:baseline;text-anchor:start;white-space:normal;shape-padding:0;clip-rule:nonzero;display:inline;overflow:visible;visibility:visible;opacity:1;isolation:auto;mix-blend-mode:normal;color-interpolation:sRGB;color-interpolation-filters:linearRGB;solid-color:#000000;solid-opacity:1;vector-effect:none;fill:#000000;fill-opacity:1;fill-rule:nonzero;stroke:none;stroke-width:1.46500015;stroke-linecap:round;stroke-linejoin:round;stroke-miterlimit:4;stroke-dasharray:none;stroke-dashoffset:0;stroke-opacity:1;paint-order:normal;color-rendering:auto;image-rendering:auto;shape-rendering:auto;text-rendering:auto;enable-background:accumulate"
       d="m 224.82617,211.20703 c -2.69213,0 -4.89062,2.1985 -4.89062,4.89063 0,2.69212 2.19849,4.89062 4.89062,4.89062 2.69213,0 4.88867,-2.1985 4.88867,-4.89062 0,-2.69213 -2.19654,-4.89063 -4.88867,-4.89063 z m 0,1.46485 c 1.90038,0 3.42383,1.52539 3.42383,3.42578 0,1.90038 -1.52345,3.42382 -3.42383,3.42382 -1.90038,0 -3.42578,-1.52344 -3.42578,-3.42382 0,-1.90039 1.5254,-3.42578 3.42578,-3.42578 z"
       id="path4774-3-0-8-4-3-2"
       inkscape:connector-curvature="0" />
    <path
       style="color:#000000;font-style:normal;font-variant:normal;font-weight:normal;font-stretch:normal;font-size:medium;line-height:normal;font-family:sans-serif;font-variant-ligatures:normal;font-variant-position:normal;font-variant-caps:normal;font-variant-numeric:normal;font-variant-alternates:normal;font-feature-settings:normal;text-indent:0;text-align:start;text-decoration:none;text-decoration-line:none;text-decoration-style:solid;text-decoration-color:#000000;letter-spacing:normal;word-spacing:normal;text-transform:none;writing-mode:lr-tb;direction:ltr;text-orientation:mixed;dominant-baseline:auto;baseline-shift:baseline;text-anchor:start;white-space:normal;shape-padding:0;clip-rule:nonzero;display:inline;overflow:visible;visibility:visible;opacity:1;isolation:auto;mix-blend-mode:normal;color-interpolation:sRGB;color-interpolation-filters:linearRGB;solid-color:#000000;solid-opacity:1;vector-effect:none;fill:#000000;fill-opacity:1;fill-rule:nonzero;stroke:none;stroke-width:1.46500015;stroke-linecap:round;stroke-linejoin:round;stroke-miterlimit:4;stroke-dasharray:none;stroke-dashoffset:0;stroke-opacity:1;paint-order:normal;color-rendering:auto;image-rendering:auto;shape-rendering:auto;text-rendering:auto;enable-background:accumulate"
       d="m 270.18359,165.84961 c -2.69212,0 -4.89062,2.1985 -4.89062,4.89062 0,2.69213 2.1985,4.89063 4.89062,4.89063 2.69213,0 4.88868,-2.1985 4.88868,-4.89063 0,-2.69212 -2.19655,-4.89062 -4.88868,-4.89062 z m 0,1.46484 c 1.90039,0 3.42383,1.5254 3.42383,3.42578 0,1.90039 -1.52344,3.42579 -3.42383,3.42579 -1.90038,0 -3.42578,-1.5254 -3.42578,-3.42579 0,-1.90038 1.5254,-3.42578 3.42578,-3.42578 z"
       id="path4774-8-6-5-4-5-3"
       inkscape:connector-curvature="0" />
    <path
       style="color:#000000;font-style:normal;font-variant:normal;font-weight:normal;font-stretch:normal;font-size:medium;line-height:normal;font-family:sans-serif;font-variant-ligatures:normal;font-variant-position:normal;font-variant-caps:normal;font-variant-numeric:normal;font-variant-alternates:normal;font-feature-settings:normal;text-indent:0;text-align:start;text-decoration:none;text-decoration-line:none;text-decoration-style:solid;text-decoration-color:#000000;letter-spacing:normal;word-spacing:normal;text-transform:none;writing-mode:lr-tb;direction:ltr;text-orientation:mixed;dominant-baseline:auto;baseline-shift:baseline;text-anchor:start;white-space:normal;shape-padding:0;clip-rule:nonzero;display:inline;overflow:visible;visibility:visible;opacity:1;isolation:auto;mix-blend-mode:normal;color-interpolation:sRGB;color-interpolation-filters:linearRGB;solid-color:#000000;solid-opacity:1;vector-effect:none;fill:#000000;fill-opacity:1;fill-rule:nonzero;stroke:none;stroke-width:1.46500015;stroke-linecap:round;stroke-linejoin:round;stroke-miterlimit:4;stroke-dasharray:none;stroke-dashoffset:0;stroke-opacity:1;paint-order:normal;color-rendering:auto;image-rendering:auto;shape-rendering:auto;text-rendering:auto;enable-background:accumulate"
       d="m 176.06641,175.67773 c -2.69213,0 -4.89063,2.1985 -4.89063,4.89063 0,2.69213 2.1985,4.88867 4.89063,4.88867 2.69212,0 4.89062,-2.19654 4.89062,-4.88867 0,-2.69213 -2.1985,-4.89063 -4.89062,-4.89063 z m 0,1.46485 c 1.90038,0 3.42578,1.5254 3.42578,3.42578 0,1.90038 -1.5254,3.42383 -3.42578,3.42383 -1.90039,0 -3.42579,-1.52345 -3.42579,-3.42383 0,-1.90038 1.5254,-3.42578 3.42579,-3.42578 z"
       id="path4774-4-8-4-6-2-6"
       inkscape:connector-curvature="0" />
    <path
       style="color:#000000;font-style:normal;font-variant:normal;font-weight:normal;font-stretch:normal;font-size:medium;line-height:normal;font-family:sans-serif;font-variant-ligatures:normal;font-variant-position:normal;font-variant-caps:normal;font-variant-numeric:normal;font-variant-alternates:normal;font-feature-settings:normal;text-indent:0;text-align:start;text-decoration:none;text-decoration-line:none;text-decoration-style:solid;text-decoration-color:#000000;letter-spacing:normal;word-spacing:normal;text-transform:none;writing-mode:lr-tb;direction:ltr;text-orientation:mixed;dominant-baseline:auto;baseline-shift:baseline;text-anchor:start;white-space:normal;shape-padding:0;clip-rule:nonzero;display:inline;overflow:visible;visibility:visible;opacity:1;isolation:auto;mix-blend-mode:normal;color-interpolation:sRGB;color-interpolation-filters:linearRGB;solid-color:#000000;solid-opacity:1;vector-effect:none;fill:#000000;fill-opacity:1;fill-rule:nonzero;stroke:none;stroke-width:1.46500015;stroke-linecap:round;stroke-linejoin:round;stroke-miterlimit:4;stroke-dasharray:none;stroke-dashoffset:0;stroke-opacity:1;paint-order:normal;color-rendering:auto;image-rendering:auto;shape-rendering:auto;text-rendering:auto;enable-background:accumulate"
       d="m 163.59375,208.18359 c -2.69213,0 -4.89063,2.1985 -4.89063,4.89063 0,2.69213 2.1985,4.88867 4.89063,4.88867 2.69213,0 4.89063,-2.19654 4.89063,-4.88867 0,-2.69213 -2.1985,-4.89063 -4.89063,-4.89063 z m 0,1.46485 c 1.90038,0 3.42578,1.5254 3.42578,3.42578 0,1.90038 -1.5254,3.42383 -3.42578,3.42383 -1.90038,0 -3.42578,-1.52345 -3.42578,-3.42383 0,-1.90038 1.5254,-3.42578 3.42578,-3.42578 z"
       id="path4774-31-8-6-0-0-7"
       inkscape:connector-curvature="0" />
    <path
       style="color:#000000;font-style:normal;font-variant:normal;font-weight:normal;font-stretch:normal;font-size:medium;line-height:normal;font-family:sans-serif;font-variant-ligatures:normal;font-variant-position:normal;font-variant-caps:normal;font-variant-numeric:normal;font-variant-alternates:normal;font-feature-settings:normal;text-indent:0;text-align:start;text-decoration:none;text-decoration-line:none;text-decoration-style:solid;text-decoration-color:#000000;letter-spacing:normal;word-spacing:normal;text-transform:none;writing-mode:lr-tb;direction:ltr;text-orientation:mixed;dominant-baseline:auto;baseline-shift:baseline;text-anchor:start;white-space:normal;shape-padding:0;clip-rule:nonzero;display:inline;overflow:visible;visibility:visible;opacity:1;isolation:auto;mix-blend-mode:normal;color-interpolation:sRGB;color-interpolation-filters:linearRGB;solid-color:#000000;solid-opacity:1;vector-effect:none;fill:#000000;fill-opacity:1;fill-rule:nonzero;stroke:none;stroke-width:1.46500015;stroke-linecap:round;stroke-linejoin:round;stroke-miterlimit:4;stroke-dasharray:none;stroke-dashoffset:0;stroke-opacity:1;paint-order:normal;color-rendering:auto;image-rendering:auto;shape-rendering:auto;text-rendering:auto;enable-background:accumulate"
       d="m 136.37891,185.50391 c -2.69213,0 -4.89063,2.19849 -4.89063,4.89062 0,2.69213 2.1985,4.89063 4.89063,4.89063 2.69212,0 4.89062,-2.1985 4.89062,-4.89063 0,-2.69213 -2.1985,-4.89062 -4.89062,-4.89062 z m 0,1.46484 c 1.90038,0 3.42578,1.5254 3.42578,3.42578 0,1.90038 -1.5254,3.42578 -3.42578,3.42578 -1.90039,0 -3.42579,-1.5254 -3.42579,-3.42578 0,-1.90038 1.5254,-3.42578 3.42579,-3.42578 z"
       id="path4774-45-8-7-6-9-05"
       inkscape:connector-curvature="0" />
    <path
       style="color:#000000;font-style:normal;font-variant:normal;font-weight:normal;font-stretch:normal;font-size:medium;line-height:normal;font-family:sans-serif;font-variant-ligatures:normal;font-variant-position:normal;font-variant-caps:normal;font-variant-numeric:normal;font-variant-alternates:normal;font-feature-settings:normal;text-indent:0;text-align:start;text-decoration:none;text-decoration-line:none;text-decoration-style:solid;text-decoration-color:#000000;letter-spacing:normal;word-spacing:normal;text-transform:none;writing-mode:lr-tb;direction:ltr;text-orientation:mixed;dominant-baseline:auto;baseline-shift:baseline;text-anchor:start;white-space:normal;shape-padding:0;clip-rule:nonzero;display:inline;overflow:visible;visibility:visible;opacity:1;isolation:auto;mix-blend-mode:normal;color-interpolation:sRGB;color-interpolation-filters:linearRGB;solid-color:#000000;solid-opacity:1;vector-effect:none;fill:#000000;fill-opacity:1;fill-rule:nonzero;stroke:none;stroke-width:1.46500015;stroke-linecap:round;stroke-linejoin:round;stroke-miterlimit:4;stroke-dasharray:none;stroke-dashoffset:0;stroke-opacity:1;paint-order:normal;color-rendering:auto;image-rendering:auto;shape-rendering:auto;text-rendering:auto;enable-background:accumulate"
       d="m 71.367188,231.61719 c -2.692128,0 -4.890626,2.19849 -4.890626,4.89062 0,2.69213 2.198498,4.89063 4.890626,4.89063 2.692127,0 4.890624,-2.1985 4.890624,-4.89063 0,-2.69213 -2.198497,-4.89062 -4.890624,-4.89062 z m 0,1.46484 c 1.900382,0 3.425781,1.5254 3.425781,3.42578 0,1.90039 -1.525399,3.42578 -3.425781,3.42578 -1.900383,0 -3.425782,-1.52539 -3.425782,-3.42578 0,-1.90038 1.525399,-3.42578 3.425782,-3.42578 z"
       id="path4774-7-7-8-5-1-3"
       inkscape:connector-curvature="0" />
    <path
       style="color:#000000;font-style:normal;font-variant:normal;font-weight:normal;font-stretch:normal;font-size:medium;line-height:normal;font-family:sans-serif;font-variant-ligatures:normal;font-variant-position:normal;font-variant-caps:normal;font-variant-numeric:normal;font-variant-alternates:normal;font-feature-settings:normal;text-indent:0;text-align:start;text-decoration:none;text-decoration-line:none;text-decoration-style:solid;text-decoration-color:#000000;letter-spacing:normal;word-spacing:normal;text-transform:none;writing-mode:lr-tb;direction:ltr;text-orientation:mixed;dominant-baseline:auto;baseline-shift:baseline;text-anchor:start;white-space:normal;shape-padding:0;clip-rule:nonzero;display:inline;overflow:visible;visibility:visible;opacity:1;isolation:auto;mix-blend-mode:normal;color-interpolation:sRGB;color-interpolation-filters:linearRGB;solid-color:#000000;solid-opacity:1;vector-effect:none;fill:#000000;fill-opacity:1;fill-rule:nonzero;stroke:none;stroke-width:1.46500015;stroke-linecap:round;stroke-linejoin:round;stroke-miterlimit:4;stroke-dasharray:none;stroke-dashoffset:0;stroke-opacity:1;paint-order:normal;color-rendering:auto;image-rendering:auto;shape-rendering:auto;text-rendering:auto;enable-background:accumulate"
       d="m 98.582031,224.05859 c -2.692127,0 -4.890625,2.1985 -4.890625,4.89063 0,2.69213 2.198498,4.88867 4.890625,4.88867 2.692129,0 4.890629,-2.19654 4.890629,-4.88867 0,-2.69213 -2.1985,-4.89063 -4.890629,-4.89063 z m 0,1.46485 c 1.900379,0 3.425779,1.5254 3.425779,3.42578 0,1.90038 -1.5254,3.42383 -3.425779,3.42383 -1.900382,0 -3.425781,-1.52345 -3.425781,-3.42383 0,-1.90038 1.525399,-3.42578 3.425781,-3.42578 z"
       id="path4774-5-2-2-1-2-4"
       inkscape:connector-curvature="0" />
    <path
       style="color:#000000;font-style:normal;font-variant:normal;font-weight:normal;font-stretch:normal;font-size:medium;line-height:normal;font-family:sans-serif;font-variant-ligatures:normal;font-variant-position:normal;font-variant-caps:normal;font-variant-numeric:normal;font-variant-alternates:normal;font-feature-settings:normal;text-indent:0;text-align:start;text-decoration:none;text-decoration-line:none;text-decoration-style:solid;text-decoration-color:#000000;letter-spacing:normal;word-spacing:normal;text-transform:none;writing-mode:lr-tb;direction:ltr;text-orientation:mixed;dominant-baseline:auto;baseline-shift:baseline;text-anchor:start;white-space:normal;shape-padding:0;clip-rule:nonzero;display:inline;overflow:visible;visibility:visible;opacity:1;isolation:auto;mix-blend-mode:normal;color-interpolation:sRGB;color-interpolation-filters:linearRGB;solid-color:#000000;solid-opacity:1;vector-effect:none;fill:#000000;fill-opacity:1;fill-rule:nonzero;stroke:none;stroke-width:1.46500015;stroke-linecap:round;stroke-linejoin:round;stroke-miterlimit:4;stroke-dasharray:none;stroke-dashoffset:0;stroke-opacity:1;paint-order:normal;color-rendering:auto;image-rendering:auto;shape-rendering:auto;text-rendering:auto;enable-background:accumulate"
       d="m 201.08789,205.53711 c -2.69213,0 -4.88867,2.1985 -4.88867,4.89062 0,2.69213 2.19654,4.89063 4.88867,4.89063 2.69213,0 4.89063,-2.1985 4.89063,-4.89063 0,-2.69212 -2.1985,-4.89062 -4.89063,-4.89062 z m 0,1.46484 c 1.90038,0 3.42578,1.5254 3.42578,3.42578 0,1.90039 -1.5254,3.42579 -3.42578,3.42579 -1.90038,0 -3.42383,-1.5254 -3.42383,-3.42579 0,-1.90038 1.52345,-3.42578 3.42383,-3.42578 z"
       id="path4774-0-4-5-9-7-6"
       inkscape:connector-curvature="0" />
    <path
       style="color:#000000;font-style:normal;font-variant:normal;font-weight:normal;font-stretch:normal;font-size:medium;line-height:normal;font-family:sans-serif;font-variant-ligatures:normal;font-variant-position:normal;font-variant-caps:normal;font-variant-numeric:normal;font-variant-alternates:normal;font-feature-settings:normal;text-indent:0;text-align:start;text-decoration:none;text-decoration-line:none;text-decoration-style:solid;text-decoration-color:#000000;letter-spacing:normal;word-spacing:normal;text-transform:none;writing-mode:lr-tb;direction:ltr;text-orientation:mixed;dominant-baseline:auto;baseline-shift:baseline;text-anchor:start;white-space:normal;shape-padding:0;clip-rule:nonzero;display:inline;overflow:visible;visibility:visible;opacity:1;isolation:auto;mix-blend-mode:normal;color-interpolation:sRGB;color-interpolation-filters:linearRGB;solid-color:#000000;solid-opacity:1;vector-effect:none;fill:#000000;fill-opacity:1;fill-rule:nonzero;stroke:none;stroke-width:1.46500015;stroke-linecap:round;stroke-linejoin:round;stroke-miterlimit:4;stroke-dasharray:none;stroke-dashoffset:0;stroke-opacity:1;paint-order:normal;color-rendering:auto;image-rendering:auto;shape-rendering:auto;text-rendering:auto;enable-background:accumulate"
       d="m 279.25391,205.53711 c -2.69213,0 -4.89063,2.1985 -4.89063,4.89062 0,2.69213 2.1985,4.89063 4.89063,4.89063 2.69212,0 4.89062,-2.1985 4.89062,-4.89063 0,-2.69212 -2.1985,-4.89062 -4.89062,-4.89062 z m 0,1.46484 c 1.90038,0 3.42578,1.5254 3.42578,3.42578 0,1.90039 -1.5254,3.42579 -3.42578,3.42579 -1.90039,0 -3.42578,-1.5254 -3.42579,-3.42579 0,-1.90038 1.5254,-3.42578 3.42579,-3.42578 z"
       id="path4774-6-7-8-6-9-7"
       inkscape:connector-curvature="0" />
    <g
       id="g5037-9-3"
       transform="translate(835.25672,-187.04747)"
       style="fill:#000000;fill-opacity:0;stroke:#e52a2a;stroke-opacity:1">
      <path
         inkscape:connector-curvature="0"
         id="path5018-3-3"
         d="m -723.67371,382.80728 v 15.875"
         style="fill:#000000;fill-opacity:0;stroke:#e52a2a;stroke-width:3;stroke-linecap:butt;stroke-linejoin:miter;stroke-miterlimit:4;stroke-dasharray:none;stroke-opacity:1" />
      <path
         inkscape:connector-curvature="0"
         id="path5018-8-1-5"
         d="m -715.73621,390.74478 h -15.875"
         style="fill:#000000;fill-opacity:0;stroke:#e52a2a;stroke-width:3;stroke-linecap:butt;stroke-linejoin:miter;stroke-miterlimit:4;stroke-dasharray:none;stroke-opacity:1" />
    </g>
    <g
       id="g5037-3-0-5"
       transform="translate(963.80461,-191.6989)"
       style="fill:#000000;fill-opacity:0;stroke:#2a96e5;stroke-opacity:1">
      <path
         inkscape:connector-curvature="0"
         id="path5018-2-8-87"
         d="m -723.67371,382.80728 v 15.875"
         style="fill:#000000;fill-opacity:0;stroke:#2a96e5;stroke-width:3;stroke-linecap:butt;stroke-linejoin:miter;stroke-miterlimit:4;stroke-dasharray:none;stroke-opacity:1" />
      <path
         inkscape:connector-curvature="0"
         id="path5018-8-9-5-7"
         d="m -715.73621,390.74478 h -15.875"
         style="fill:#000000;fill-opacity:0;stroke:#2a96e5;stroke-width:3;stroke-linecap:butt;stroke-linejoin:miter;stroke-miterlimit:4;stroke-dasharray:none;stroke-opacity:1" />
    </g>
  </g>
</svg>
