<?xml version="1.0" encoding="UTF-8" standalone="no"?>
<!-- Created with Inkscape (http://www.inkscape.org/) -->

<svg
   xmlns:dc="http://purl.org/dc/elements/1.1/"
   xmlns:cc="http://creativecommons.org/ns#"
   xmlns:rdf="http://www.w3.org/1999/02/22-rdf-syntax-ns#"
   xmlns:svg="http://www.w3.org/2000/svg"
   xmlns="http://www.w3.org/2000/svg"
   xmlns:sodipodi="http://sodipodi.sourceforge.net/DTD/sodipodi-0.dtd"
   xmlns:inkscape="http://www.inkscape.org/namespaces/inkscape"
   width="320mm"
   height="160mm"
   viewBox="0 0 320 160"
   version="1.1"
   id="svg1265"
   inkscape:version="0.92.1 r15371"
   sodipodi:docname="steps.svg">
  <defs
     id="defs1259">
    <clipPath
       clipPathUnits="userSpaceOnUse"
       id="clipPath6247">
      <rect
         style="opacity:1;fill:#dcddbb;fill-opacity:0.44961243;fill-rule:nonzero;stroke:none;stroke-width:0.40843093;stroke-linecap:round;stroke-linejoin:round;stroke-miterlimit:4;stroke-dasharray:none;stroke-dashoffset:0;stroke-opacity:0.99612403;paint-order:normal"
         id="rect6249"
         width="329.59521"
         height="165.95544"
         x="-3.0238097"
         y="-152.23665"
         rx="0.02558464"
         ry="0.02558464" />
    </clipPath>
    <marker
       inkscape:stockid="TriangleOutS"
       orient="auto"
       refY="0"
       refX="0"
       id="TriangleOutS-9-6-6"
       style="overflow:visible"
       inkscape:isstock="true">
      <path
         inkscape:connector-curvature="0"
         id="path4637-8-2-8"
         d="M 5.77,0 -2.88,5 V -5 Z"
         style="fill:#000000;fill-opacity:1;fill-rule:evenodd;stroke:#000000;stroke-width:1.00000003pt;stroke-opacity:1"
         transform="scale(0.2)" />
    </marker>
    <marker
       inkscape:stockid="TriangleOutS"
       orient="auto"
       refY="0"
       refX="0"
       id="TriangleOutS-9-6"
       style="overflow:visible"
       inkscape:isstock="true">
      <path
         inkscape:connector-curvature="0"
         id="path4637-8-2"
         d="M 5.77,0 -2.88,5 V -5 Z"
         style="fill:#000000;fill-opacity:1;fill-rule:evenodd;stroke:#000000;stroke-width:1.00000003pt;stroke-opacity:1"
         transform="scale(0.2)" />
    </marker>
    <marker
       inkscape:stockid="TriangleOutS"
       orient="auto"
       refY="0"
       refX="0"
       id="TriangleOutS-9"
       style="overflow:visible"
       inkscape:isstock="true">
      <path
         inkscape:connector-curvature="0"
         id="path4637-8"
         d="M 5.77,0 -2.88,5 V -5 Z"
         style="fill:#000000;fill-opacity:1;fill-rule:evenodd;stroke:#000000;stroke-width:1.00000003pt;stroke-opacity:1"
         transform="scale(0.2)" />
    </marker>
    <marker
       inkscape:stockid="TriangleOutS"
       orient="auto"
       refY="0"
       refX="0"
       id="TriangleOutS"
       style="overflow:visible"
       inkscape:isstock="true">
      <path
         inkscape:connector-curvature="0"
         id="path4637"
         d="M 5.77,0 -2.88,5 V -5 Z"
         style="fill:#000000;fill-opacity:1;fill-rule:evenodd;stroke:#000000;stroke-width:1.00000003pt;stroke-opacity:1"
         transform="scale(0.2)" />
    </marker>
  </defs>
  <sodipodi:namedview
     id="base"
     pagecolor="#ffffff"
     bordercolor="#666666"
     borderopacity="1.0"
     inkscape:pageopacity="0.0"
     inkscape:pageshadow="2"
     inkscape:zoom="0.98994952"
     inkscape:cx="553.41947"
     inkscape:cy="259.16811"
     inkscape:document-units="mm"
     inkscape:current-layer="layer1"
     showgrid="false"
     inkscape:window-width="1822"
     inkscape:window-height="1046"
     inkscape:window-x="87"
     inkscape:window-y="-11"
     inkscape:window-maximized="1"
     units="in"
     inkscape:snap-page="true" />
  <metadata
     id="metadata1262">
    <rdf:RDF>
      <cc:Work
         rdf:about="">
        <dc:format>image/svg+xml</dc:format>
        <dc:type
           rdf:resource="http://purl.org/dc/dcmitype/StillImage" />
        <dc:title></dc:title>
      </cc:Work>
    </rdf:RDF>
  </metadata>
  <g
     inkscape:label="Calque 1"
     inkscape:groupmode="layer"
     id="layer1"
     transform="translate(0,-137)">
    <rect
       style="opacity:1;fill:#ffffff;fill-opacity:1;fill-rule:nonzero;stroke:none;stroke-width:0.93755728;stroke-linecap:round;stroke-linejoin:round;stroke-miterlimit:4;stroke-dasharray:none;stroke-dashoffset:0;stroke-opacity:1;paint-order:normal"
       id="rect5794"
       width="320"
       height="47.48616"
       x="1.7763568e-015"
       y="190.85811"
       rx="0"
       ry="0"
       inkscape:export-xdpi="300"
       inkscape:export-ydpi="300" />
    <circle
       style="opacity:1;fill:#000000;fill-opacity:1;fill-rule:nonzero;stroke:none;stroke-width:1.50009155;stroke-linecap:round;stroke-linejoin:round;stroke-miterlimit:4;stroke-dasharray:none;stroke-dashoffset:0;stroke-opacity:1;paint-order:normal"
       id="path4485"
       cx="14.174973"
       cy="214.61951"
       r="9.2137327" />
    <g
       id="g8159">
      <path
         style="color:#000000;font-style:normal;font-variant:normal;font-weight:normal;font-stretch:normal;font-size:medium;line-height:normal;font-family:sans-serif;font-variant-ligatures:normal;font-variant-position:normal;font-variant-caps:normal;font-variant-numeric:normal;font-variant-alternates:normal;font-feature-settings:normal;text-indent:0;text-align:start;text-decoration:none;text-decoration-line:none;text-decoration-style:solid;text-decoration-color:#000000;letter-spacing:normal;word-spacing:normal;text-transform:none;writing-mode:lr-tb;direction:ltr;text-orientation:mixed;dominant-baseline:auto;baseline-shift:baseline;text-anchor:start;white-space:normal;shape-padding:0;clip-rule:nonzero;display:inline;overflow:visible;visibility:visible;opacity:1;isolation:auto;mix-blend-mode:normal;color-interpolation:sRGB;color-interpolation-filters:linearRGB;solid-color:#000000;solid-opacity:1;vector-effect:none;fill:#000000;fill-opacity:1;fill-rule:nonzero;stroke:none;stroke-width:1.87511456;stroke-linecap:butt;stroke-linejoin:miter;stroke-miterlimit:4;stroke-dasharray:none;stroke-dashoffset:0;stroke-opacity:1;color-rendering:auto;image-rendering:auto;shape-rendering:auto;text-rendering:auto;enable-background:accumulate"
         d="m 12.066406,213.68164 v 1.875 h 29.414063 v -1.875 z"
         id="path4487"
         inkscape:connector-curvature="0" />
      <path
         style="fill:#000000;fill-opacity:1;fill-rule:evenodd;stroke:#000000;stroke-width:0.37502293pt;stroke-opacity:1"
         d="m 43.643491,214.6195 -3.243948,1.87511 v -3.75022 z"
         id="path8165"
         inkscape:connector-curvature="0" />
    </g>
    <path
       style="font-style:normal;font-variant:normal;font-weight:500;font-stretch:normal;font-size:16px;line-height:1.25;font-family:'Fira Sans';-inkscape-font-specification:'Fira Sans, Medium';font-variant-ligatures:normal;font-variant-caps:normal;font-variant-numeric:normal;font-feature-settings:normal;text-align:center;letter-spacing:0px;word-spacing:0px;writing-mode:lr-tb;text-anchor:middle;fill:#000000;fill-opacity:1;stroke:none;stroke-width:1.87511444"
       d="M 292.43164 259.38867 C 291.02155 259.38867 290.03125 260.40844 290.03125 261.72852 C 290.03125 263.01859 291.02155 264.03906 292.43164 264.03906 C 293.87173 264.03906 294.86328 263.01859 294.86328 261.72852 C 294.86328 260.40844 293.87173 259.38867 292.43164 259.38867 z M 686.79297 259.38867 C 685.38288 259.38867 684.39258 260.40844 684.39258 261.72852 C 684.39258 263.01859 685.38288 264.03906 686.79297 264.03906 C 688.23306 264.03906 689.22266 263.01859 689.22266 261.72852 C 689.22266 260.40844 688.23306 259.38867 686.79297 259.38867 z M 350.91602 260.64844 L 350.91602 268.68945 C 349.92596 267.69939 348.60588 266.97852 346.92578 266.97852 C 342.99554 266.97852 340.53516 270.48861 340.53516 275.37891 C 340.53516 280.41921 342.60421 283.75 346.56445 283.75 C 348.60458 283.75 350.13564 282.72915 351.0957 281.28906 L 351.36523 283.29883 L 354.75586 283.29883 L 354.75586 261.06836 L 350.91602 260.64844 z M 652.26172 260.64844 L 648.42188 261.06836 L 648.42188 279.66992 C 648.42188 282.28008 649.89212 283.75 652.32227 283.75 C 653.31233 283.75 654.21301 283.509 654.87305 283.20898 L 654.0625 280.50977 C 653.79248 280.59977 653.52213 280.66016 653.16211 280.66016 C 652.53207 280.66016 652.26172 280.29887 652.26172 279.54883 L 652.26172 260.64844 z M 237.85742 262.11719 C 232.6671 262.11719 228.3457 265.89754 228.3457 272.91797 C 228.3457 280.0284 231.58573 283.75 237.49609 283.75 C 240.10625 283.75 242.56659 282.96906 244.63672 281.70898 L 244.63672 271.56836 L 237.19727 271.56836 L 237.61719 274.50977 L 240.73633 274.50977 L 240.73633 279.9082 C 239.74627 280.47824 238.60757 280.71875 237.4375 280.71875 C 234.1973 280.71875 232.51758 278.58831 232.51758 272.91797 C 232.51758 267.33763 235.03638 265.11914 237.97656 265.11914 C 239.74667 265.11914 240.91804 265.65751 242.32812 266.76758 L 244.45703 264.54883 C 242.71693 263.07874 240.7376 262.11719 237.85742 262.11719 z M 548.02148 262.56836 L 548.02148 283.29883 L 551.98242 283.29883 L 551.98242 262.56836 L 548.02148 262.56836 z M 283.46094 263.46875 L 279.62109 263.91797 L 279.62109 267.42773 L 277.13086 267.42773 L 277.13086 270.18945 L 279.62109 270.18945 L 279.62109 278.55859 C 279.62109 281.9488 281.27239 283.72 284.39258 283.75 C 285.80266 283.75 287.24274 283.35888 288.38281 282.54883 L 287.03125 280.08984 C 286.34121 280.47987 285.74261 280.66016 285.14258 280.66016 C 283.97251 280.66016 283.46094 280.02885 283.46094 278.46875 L 283.46094 270.18945 L 286.76172 270.18945 L 287.15234 267.42773 L 283.46094 267.42773 L 283.46094 263.46875 z M 578.32422 263.46875 L 574.48438 263.91797 L 574.48438 267.42773 L 571.99414 267.42773 L 571.99414 270.18945 L 574.48438 270.18945 L 574.48438 278.55859 C 574.48438 281.9488 576.13372 283.72 579.25391 283.75 C 580.66399 283.75 582.10407 283.35888 583.24414 282.54883 L 581.89453 280.08984 C 581.20449 280.47987 580.60394 280.66016 580.00391 280.66016 C 578.83383 280.66016 578.32422 280.02885 578.32422 278.46875 L 578.32422 270.18945 L 581.62305 270.18945 L 582.01367 267.42773 L 578.32422 267.42773 L 578.32422 263.46875 z M 677.82227 263.46875 L 673.98242 263.91797 L 673.98242 267.42773 L 671.49219 267.42773 L 671.49219 270.18945 L 673.98242 270.18945 L 673.98242 278.55859 C 673.98242 281.9488 675.63176 283.72 678.75195 283.75 C 680.16204 283.75 681.60212 283.35888 682.74219 282.54883 L 681.39258 280.08984 C 680.70254 280.47987 680.10199 280.66016 679.50195 280.66016 C 678.33188 280.66016 677.82227 280.02885 677.82227 278.46875 L 677.82227 270.18945 L 681.12305 270.18945 L 681.51172 267.42773 L 677.82227 267.42773 L 677.82227 263.46875 z M 254.55859 266.97852 C 250.05832 266.97852 247.50781 270.63846 247.50781 275.46875 C 247.50781 280.47906 250.14806 283.75 255.06836 283.75 C 257.46851 283.75 259.38912 282.87922 260.94922 281.61914 L 259.35938 279.42969 C 257.97929 280.38975 256.80852 280.83984 255.39844 280.83984 C 253.29831 280.83984 251.76806 279.78903 251.49805 276.54883 L 261.45898 276.54883 C 261.48899 276.1288 261.54883 275.49831 261.54883 274.98828 C 261.54883 269.97798 258.99886 266.97852 254.55859 266.97852 z M 270.00391 266.97852 C 266.31368 266.97852 263.88281 268.95945 263.88281 271.59961 C 263.88281 273.93975 265.32355 275.49838 268.59375 276.39844 C 271.56393 277.23849 272.19336 277.65844 272.19336 278.97852 C 272.19336 280.17859 271.08315 280.89844 269.37305 280.89844 C 267.75295 280.89844 266.28281 280.2699 265.05273 279.33984 L 263.13281 281.5 C 264.6029 282.82008 266.73468 283.75 269.46484 283.75 C 273.09507 283.75 276.1543 282.00919 276.1543 278.70898 C 276.1543 275.88881 274.32418 274.56927 271.08398 273.69922 C 268.38382 272.94917 267.75391 272.46803 267.75391 271.41797 C 267.75391 270.45791 268.6242 269.82812 270.1543 269.82812 C 271.56438 269.82812 272.82445 270.27909 274.14453 271.11914 L 275.64453 268.86914 C 274.14444 267.69907 272.28405 266.97852 270.00391 266.97852 z M 305.46094 266.97852 C 300.75065 266.97852 297.96094 270.36931 297.96094 275.34961 C 297.96094 280.56993 300.7494 283.75 305.42969 283.75 C 310.10997 283.75 312.90039 280.35992 312.90039 275.34961 C 312.90039 270.15929 310.14122 266.97852 305.46094 266.97852 z M 324.96094 266.97852 C 322.95081 266.97852 321.36093 267.90795 320.13086 269.49805 L 319.83008 267.42773 L 316.5 267.42773 L 316.5 283.29883 L 320.3418 283.29883 L 320.3418 272.25781 C 321.27185 270.78772 322.29179 269.85937 323.67188 269.85938 C 324.87195 269.85938 325.62109 270.42808 325.62109 272.4082 L 325.62109 283.29883 L 329.46094 283.29883 L 329.46094 271.80859 C 329.46094 268.77841 327.81111 266.97852 324.96094 266.97852 z M 365.42383 266.97852 C 360.92355 266.97852 358.37305 270.63846 358.37305 275.46875 C 358.37305 280.47906 361.01329 283.75 365.93359 283.75 C 368.33374 283.75 370.25436 282.87922 371.81445 281.61914 L 370.22461 279.42969 C 368.84453 280.38975 367.67376 280.83984 366.26367 280.83984 C 364.16354 280.83984 362.6333 279.78903 362.36328 276.54883 L 372.32422 276.54883 C 372.35422 276.1288 372.41406 275.49831 372.41406 274.98828 C 372.41406 269.97798 369.8641 266.97852 365.42383 266.97852 z M 380.86914 266.97852 C 377.17892 266.97852 374.75 268.95945 374.75 271.59961 C 374.75 273.93975 376.19074 275.49838 379.46094 276.39844 C 382.43112 277.23849 383.06055 277.65844 383.06055 278.97852 C 383.06055 280.17859 381.95034 280.89844 380.24023 280.89844 C 378.62014 280.89844 377.15 280.2699 375.91992 279.33984 L 374 281.5 C 375.47009 282.82008 377.59991 283.75 380.33008 283.75 C 383.9603 283.75 387.01953 282.00919 387.01953 278.70898 C 387.01953 275.88881 385.18942 274.56927 381.94922 273.69922 C 379.24905 272.94917 378.61914 272.46803 378.61914 271.41797 C 378.61914 270.45791 379.48944 269.82812 381.01953 269.82812 C 382.42962 269.82812 383.68969 270.27909 385.00977 271.11914 L 386.50977 268.86914 C 385.00967 267.69907 383.14928 266.97852 380.86914 266.97852 z M 565.21094 266.97852 C 563.20081 266.97852 561.61093 267.90795 560.38086 269.49805 L 560.08008 267.42773 L 556.75 267.42773 L 556.75 283.29883 L 560.58984 283.29883 L 560.58984 272.25781 C 561.5199 270.78772 562.53984 269.85937 563.91992 269.85938 C 565.12 269.85938 565.87109 270.42808 565.87109 272.4082 L 565.87109 283.29883 L 569.71094 283.29883 L 569.71094 271.80859 C 569.71094 268.77841 568.06111 266.97852 565.21094 266.97852 z M 590.90625 266.97852 C 586.40598 266.97852 583.85742 270.63846 583.85742 275.46875 C 583.85742 280.47906 586.49767 283.75 591.41797 283.75 C 593.81812 283.75 595.73678 282.87922 597.29688 281.61914 L 595.70703 279.42969 C 594.32695 280.38975 593.15813 280.83984 591.74805 280.83984 C 589.64792 280.83984 588.11767 279.78903 587.84766 276.54883 L 597.80664 276.54883 C 597.83664 276.1288 597.89844 275.49831 597.89844 274.98828 C 597.89844 269.97798 595.34652 266.97852 590.90625 266.97852 z M 621.40039 266.97852 C 619.69029 266.97852 618.01008 267.72881 616.75 269.37891 L 616.53906 267.42773 L 613.17969 267.42773 L 613.17969 289.83984 L 617.01953 289.41992 L 617.01953 282.00977 C 618.00959 283.17984 619.38967 283.75 621.00977 283.75 C 625.03001 283.75 627.2793 280.17866 627.2793 275.31836 C 627.2793 270.24805 625.54064 266.97852 621.40039 266.97852 z M 637.53125 266.97852 C 632.82096 266.97852 630.03125 270.36931 630.03125 275.34961 C 630.03125 280.56993 632.82167 283.75 637.50195 283.75 C 642.18224 283.75 644.97266 280.35992 644.97266 275.34961 C 644.97266 270.15929 642.21154 266.97852 637.53125 266.97852 z M 662.88477 266.97852 C 661.08466 266.97852 659.07512 267.36909 657.125 268.11914 L 658.02539 270.72852 C 659.61549 270.18848 661.14454 269.88867 662.22461 269.88867 C 664.26473 269.88867 665.19531 270.57831 665.19531 272.64844 L 665.19531 273.54883 L 663.21484 273.54883 C 658.59456 273.54883 655.98438 275.40916 655.98438 278.85938 C 655.98438 281.73955 657.93504 283.75 661.11523 283.75 C 663.00535 283.75 664.7454 283.05901 665.85547 281.37891 C 666.48551 282.909 667.62513 283.53944 669.36523 283.68945 L 670.17578 281.13867 C 669.39573 280.83865 668.97461 280.38969 668.97461 279.09961 L 668.97461 272.43945 C 668.97461 268.92924 667.11502 266.97852 662.88477 266.97852 z M 699.82031 266.97852 C 695.11002 266.97852 692.32031 270.36931 692.32031 275.34961 C 692.32031 280.56993 695.11073 283.75 699.79102 283.75 C 704.4713 283.75 707.26172 280.35992 707.26172 275.34961 C 707.26172 270.15929 704.5006 266.97852 699.82031 266.97852 z M 719.32227 266.97852 C 717.31214 266.97852 715.72226 267.90795 714.49219 269.49805 L 714.19141 267.42773 L 710.86133 267.42773 L 710.86133 283.29883 L 714.70117 283.29883 L 714.70117 272.25781 C 715.63123 270.78772 716.65117 269.85937 718.03125 269.85938 C 719.23132 269.85938 719.98242 270.42808 719.98242 272.4082 L 719.98242 283.29883 L 723.82227 283.29883 L 723.82227 271.80859 C 723.82227 268.77841 722.17244 266.97852 719.32227 266.97852 z M 733.27539 266.97852 C 729.58517 266.97852 727.1543 268.95945 727.1543 271.59961 C 727.1543 273.93975 728.59503 275.49838 731.86523 276.39844 C 734.83542 277.23849 735.46484 277.65844 735.46484 278.97852 C 735.46484 280.17859 734.35464 280.89844 732.64453 280.89844 C 731.02443 280.89844 729.55429 280.2699 728.32422 279.33984 L 726.4043 281.5 C 727.87439 282.82008 730.00421 283.75 732.73438 283.75 C 736.3646 283.75 739.42578 282.00919 739.42578 278.70898 C 739.42578 275.88881 737.59567 274.56927 734.35547 273.69922 C 731.6553 272.94917 731.02539 272.46803 731.02539 271.41797 C 731.02539 270.45791 731.89373 269.82812 733.42383 269.82812 C 734.83391 269.82812 736.09398 270.27909 737.41406 271.11914 L 738.91602 268.86914 C 737.41592 267.69907 735.55553 266.97852 733.27539 266.97852 z M 609.17383 267.00781 C 607.31371 267.00781 605.78325 268.26869 605.0332 270.54883 L 604.67188 267.42773 L 601.3418 267.42773 L 601.3418 283.29883 L 605.18359 283.29883 L 605.18359 274.83984 C 605.78363 272.16968 606.77324 270.75781 608.69336 270.75781 C 609.23339 270.75781 609.62349 270.81945 610.10352 270.93945 L 610.76367 267.21875 C 610.25364 267.06874 609.74386 267.00781 609.17383 267.00781 z M 290.54297 267.42773 L 290.54297 283.29883 L 294.38281 283.29883 L 294.38281 267.42773 L 290.54297 267.42773 z M 684.90234 267.42773 L 684.90234 283.29883 L 688.74219 283.29883 L 688.74219 267.42773 L 684.90234 267.42773 z M 254.64844 269.70898 C 256.80857 269.70898 257.73828 271.26875 257.73828 273.87891 L 257.73828 274.05859 L 251.49805 274.05859 C 251.70806 270.9084 252.84833 269.70898 254.64844 269.70898 z M 365.51367 269.70898 C 367.6738 269.70898 368.60352 271.26875 368.60352 273.87891 L 368.60352 274.05859 L 362.36328 274.05859 C 362.57329 270.9084 363.71356 269.70898 365.51367 269.70898 z M 590.99805 269.70898 C 593.15818 269.70898 594.08789 271.26875 594.08789 273.87891 L 594.08789 274.05859 L 587.84766 274.05859 C 588.05767 270.9084 589.19794 269.70898 590.99805 269.70898 z M 347.88477 269.85938 C 349.17484 269.85938 350.07596 270.519 350.91602 271.53906 L 350.91602 278.79883 C 350.01596 280.14891 349.05462 280.83984 347.64453 280.83984 C 345.75442 280.83984 344.58398 279.42986 344.58398 275.34961 C 344.58398 271.53938 345.90464 269.85938 347.88477 269.85938 z M 620.25977 269.85938 C 622.17988 269.85938 623.25977 271.32936 623.25977 275.34961 C 623.25977 279.18984 622.02982 280.80859 619.92969 280.80859 C 618.72961 280.80859 617.76958 280.27022 617.01953 279.16016 L 617.01953 272.01953 C 617.76958 270.78946 618.90968 269.85938 620.25977 269.85938 z M 305.46094 269.88867 C 307.68107 269.88867 308.85156 271.56938 308.85156 275.34961 C 308.85156 279.12984 307.67982 280.83984 305.42969 280.83984 C 303.17955 280.83984 302.00977 279.15984 302.00977 275.34961 C 302.00977 271.59938 303.2108 269.88867 305.46094 269.88867 z M 637.53125 269.88867 C 639.75139 269.88867 640.92188 271.56938 640.92188 275.34961 C 640.92188 279.12984 639.75209 280.83984 637.50195 280.83984 C 635.25182 280.83984 634.08203 279.15984 634.08203 275.34961 C 634.08203 271.59938 635.28111 269.88867 637.53125 269.88867 z M 699.82031 269.88867 C 702.04045 269.88867 703.21094 271.56938 703.21094 275.34961 C 703.21094 279.12984 702.04115 280.83984 699.79102 280.83984 C 697.54088 280.83984 696.37109 279.15984 696.37109 275.34961 C 696.37109 271.59938 697.57018 269.88867 699.82031 269.88867 z M 663.60547 275.79883 L 665.19531 275.79883 L 665.19531 279.00977 C 664.47527 280.26984 663.48485 280.95898 662.13477 280.95898 C 660.66468 280.95898 659.88477 280.08869 659.88477 278.55859 C 659.88477 276.69848 661.11532 275.79883 663.60547 275.79883 z M 937.7793 281.18359 C 936.36921 281.18359 935.37891 282.20336 935.37891 283.52344 C 935.37891 284.81352 936.36921 285.83398 937.7793 285.83398 C 939.21938 285.83398 940.20898 284.81352 940.20898 283.52344 C 940.20898 282.20336 939.21938 281.18359 937.7793 281.18359 z M 1005.5762 281.18359 C 1004.1661 281.18359 1003.1758 282.20336 1003.1758 283.52344 C 1003.1758 284.81352 1004.1661 285.83398 1005.5762 285.83398 C 1007.0163 285.83398 1008.0059 284.81352 1008.0059 283.52344 C 1008.0059 282.20336 1007.0163 281.18359 1005.5762 281.18359 z M 886.43164 282.44531 L 882.58984 282.86523 L 882.58984 301.46484 C 882.58984 304.075 884.06009 305.54492 886.49023 305.54492 C 887.48029 305.54492 888.38098 305.30588 889.04102 305.00586 L 888.23047 302.30469 C 887.96045 302.39469 887.6901 302.45508 887.33008 302.45508 C 886.70004 302.45508 886.43164 302.09575 886.43164 301.3457 L 886.43164 282.44531 z M 950.77734 282.44531 C 946.45708 282.44531 944.68555 284.63474 944.68555 287.54492 L 944.68555 289.22461 L 942.19727 289.22461 L 942.19727 291.98438 L 944.68555 291.98438 L 944.68555 305.0957 L 948.52734 305.0957 L 948.52734 291.98438 L 953.50781 291.98438 L 953.50781 305.0957 L 957.34766 305.0957 L 957.34766 289.22461 L 948.52734 289.22461 L 948.52734 287.60547 C 948.52734 286.10538 949.0673 285.38477 951.10742 285.38477 C 952.3675 285.38477 953.50674 285.68474 954.4668 286.13477 L 955.63672 283.58398 C 954.34664 282.95395 952.78747 282.44531 950.77734 282.44531 z M 874.02148 283.91406 C 868.92117 283.91406 864.96094 287.72512 864.96094 294.68555 C 864.96094 301.73598 868.7117 305.54492 874.08203 305.54492 C 876.9022 305.54492 879.06219 304.31547 880.32227 303.02539 L 878.46289 300.68555 C 877.26282 301.5856 876.03253 302.36523 874.23242 302.36523 C 871.29224 302.36523 869.13281 300.14588 869.13281 294.68555 C 869.13281 289.0752 871.35225 286.97461 874.23242 286.97461 C 875.64251 286.97461 876.87219 287.48525 878.07227 288.44531 L 880.08203 286.10547 C 878.37193 284.69538 876.66165 283.91406 874.02148 283.91406 z M 996.60547 285.26367 L 992.76562 285.71484 L 992.76562 289.22461 L 990.27539 289.22461 L 990.27539 291.98438 L 992.76562 291.98438 L 992.76562 300.35547 C 992.76562 303.74568 994.41497 305.51492 997.53516 305.54492 C 998.94524 305.54492 1000.3853 305.15575 1001.5254 304.3457 L 1000.1758 301.88477 C 999.48574 302.27479 998.88519 302.45508 998.28516 302.45508 C 997.11508 302.45508 996.60547 301.82572 996.60547 300.26562 L 996.60547 291.98438 L 999.90625 291.98438 L 1000.2949 289.22461 L 996.60547 289.22461 L 996.60547 285.26367 z M 897.05273 288.77539 C 895.25262 288.77539 893.24309 289.16402 891.29297 289.91406 L 892.19336 292.52539 C 893.78346 291.98536 895.31251 291.68555 896.39258 291.68555 C 898.4327 291.68555 899.36328 292.37519 899.36328 294.44531 L 899.36328 295.3457 L 897.38281 295.3457 C 892.76253 295.3457 890.15234 297.20604 890.15234 300.65625 C 890.15234 303.53643 892.10301 305.54492 895.2832 305.54492 C 897.17332 305.54492 898.91337 304.85588 900.02344 303.17578 C 900.65348 304.70587 901.7931 305.33632 903.5332 305.48633 L 904.34375 302.93555 C 903.5637 302.63553 903.14453 302.18461 903.14453 300.89453 L 903.14453 294.23438 C 903.14453 290.72416 901.28299 288.77539 897.05273 288.77539 z M 912.53711 288.77539 C 908.84688 288.77539 906.41797 290.75437 906.41797 293.39453 C 906.41797 295.73467 907.85675 297.29526 911.12695 298.19531 C 914.09713 299.03536 914.72852 299.45531 914.72852 300.77539 C 914.72852 301.97546 913.61831 302.69531 911.9082 302.69531 C 910.2881 302.69531 908.81797 302.06482 907.58789 301.13477 L 905.66797 303.29492 C 907.13806 304.615 909.26788 305.54492 911.99805 305.54492 C 915.62827 305.54492 918.6875 303.80606 918.6875 300.50586 C 918.6875 297.68569 916.85739 296.36615 913.61719 295.49609 C 910.91702 294.74605 910.28711 294.26491 910.28711 293.21484 C 910.28711 292.25479 911.15741 291.625 912.6875 291.625 C 914.09759 291.625 915.35765 292.07401 916.67773 292.91406 L 918.17773 290.66406 C 916.67764 289.49399 914.81725 288.77539 912.53711 288.77539 z M 926.60156 288.77539 C 922.91134 288.77539 920.48047 290.75437 920.48047 293.39453 C 920.48047 295.73467 921.92121 297.29526 925.19141 298.19531 C 928.16159 299.03536 928.79102 299.45531 928.79102 300.77539 C 928.79102 301.97546 927.68081 302.69531 925.9707 302.69531 C 924.3506 302.69531 922.88047 302.06482 921.65039 301.13477 L 919.73047 303.29492 C 921.20056 304.615 923.33038 305.54492 926.06055 305.54492 C 929.69077 305.54492 932.75195 303.80606 932.75195 300.50586 C 932.75195 297.68569 930.92184 296.36615 927.68164 295.49609 C 924.98148 294.74605 924.35156 294.26491 924.35156 293.21484 C 924.35156 292.25479 925.22186 291.625 926.75195 291.625 C 928.16204 291.625 929.42211 292.07401 930.74219 292.91406 L 932.24219 290.66406 C 930.7421 289.49399 928.8817 288.77539 926.60156 288.77539 z M 968.35547 288.77539 C 963.79519 288.77539 960.94336 292.22461 960.94336 297.29492 C 960.94336 302.36523 963.79449 305.54492 968.38477 305.54492 C 970.42489 305.54492 972.07554 304.88492 973.51562 303.71484 L 971.80469 301.28516 C 970.63462 302.0352 969.79382 302.42578 968.59375 302.42578 C 966.43362 302.42578 965.02539 301.07461 965.02539 297.23438 C 965.02539 293.42414 966.37361 291.80469 968.59375 291.80469 C 969.79382 291.80469 970.75462 292.16526 971.80469 292.94531 L 973.51562 290.63477 C 972.01553 289.34469 970.4256 288.77539 968.35547 288.77539 z M 981.66797 288.77539 C 979.86786 288.77539 977.85832 289.16402 975.9082 289.91406 L 976.80859 292.52539 C 978.39869 291.98536 979.92775 291.68555 981.00781 291.68555 C 983.04794 291.68555 983.97852 292.37519 983.97852 294.44531 L 983.97852 295.3457 L 981.99805 295.3457 C 977.37776 295.3457 974.76758 297.20604 974.76758 300.65625 C 974.76758 303.53643 976.71824 305.54492 979.89844 305.54492 C 981.78855 305.54492 983.5286 304.85588 984.63867 303.17578 C 985.26871 304.70587 986.40833 305.33632 988.14844 305.48633 L 988.95898 302.93555 C 988.17894 302.63553 987.75781 302.18461 987.75781 300.89453 L 987.75781 294.23438 C 987.75781 290.72416 985.89823 288.77539 981.66797 288.77539 z M 1018.6035 288.77539 C 1013.8932 288.77539 1011.1035 292.16423 1011.1035 297.14453 C 1011.1035 302.36485 1013.8939 305.54492 1018.5742 305.54492 C 1023.2545 305.54492 1026.0449 302.15484 1026.0449 297.14453 C 1026.0449 291.95421 1023.2838 288.77539 1018.6035 288.77539 z M 1038.1055 288.77539 C 1036.0953 288.77539 1034.5035 289.70482 1033.2734 291.29492 L 1032.9746 289.22461 L 1029.6445 289.22461 L 1029.6445 305.0957 L 1033.4844 305.0957 L 1033.4844 294.05469 C 1034.4144 292.5846 1035.4344 291.6543 1036.8145 291.6543 C 1038.0145 291.6543 1038.7656 292.22496 1038.7656 294.20508 L 1038.7656 305.0957 L 1042.6055 305.0957 L 1042.6055 293.60547 C 1042.6055 290.57528 1040.9556 288.77539 1038.1055 288.77539 z M 935.88867 289.22461 L 935.88867 305.0957 L 939.72852 305.0957 L 939.72852 289.22461 L 935.88867 289.22461 z M 1003.6855 289.22461 L 1003.6855 305.0957 L 1007.5254 305.0957 L 1007.5254 289.22461 L 1003.6855 289.22461 z M 1018.6035 291.68555 C 1020.8237 291.68555 1021.9941 293.3643 1021.9941 297.14453 C 1021.9941 300.92476 1020.8244 302.63477 1018.5742 302.63477 C 1016.3241 302.63477 1015.1543 300.95476 1015.1543 297.14453 C 1015.1543 293.3943 1016.3534 291.68555 1018.6035 291.68555 z M 644.93164 296.20117 L 638.63086 299.95117 L 639.71094 301.90039 L 646.49023 299.20117 L 644.93164 296.20117 z M 376.92969 296.89062 C 375.5196 296.89062 374.5293 297.91039 374.5293 299.23047 C 374.5293 300.52055 375.5196 301.54102 376.92969 301.54102 C 378.36978 301.54102 379.35938 300.52055 379.35938 299.23047 C 379.35938 297.91039 378.36978 296.89062 376.92969 296.89062 z M 586.97266 296.89062 C 585.56257 296.89062 584.57227 297.91039 584.57227 299.23047 C 584.57227 300.52055 585.56257 301.54102 586.97266 301.54102 C 588.41274 301.54102 589.40234 300.52055 589.40234 299.23047 C 589.40234 297.91039 588.41274 296.89062 586.97266 296.89062 z M 677.97461 296.89062 C 676.56452 296.89062 675.57422 297.91039 675.57422 299.23047 C 675.57422 300.52055 676.56452 301.54102 677.97461 301.54102 C 679.4147 301.54102 680.4043 300.52055 680.4043 299.23047 C 680.4043 297.91039 679.4147 296.89062 677.97461 296.89062 z M 897.77344 297.5957 L 899.36328 297.5957 L 899.36328 300.80469 C 898.64324 302.06476 897.65282 302.75586 896.30273 302.75586 C 894.83264 302.75586 894.05273 301.88556 894.05273 300.35547 C 894.05273 298.49536 895.28329 297.5957 897.77344 297.5957 z M 982.38867 297.5957 L 983.97852 297.5957 L 983.97852 300.80469 C 983.25847 302.06476 982.26805 302.75586 980.91797 302.75586 C 979.44788 302.75586 978.66797 301.88556 978.66797 300.35547 C 978.66797 298.49536 979.89852 297.5957 982.38867 297.5957 z M 307.20117 298.15039 L 307.20117 306.19141 C 306.21111 305.20135 304.89104 304.48047 303.21094 304.48047 C 299.2807 304.48047 296.82031 307.99056 296.82031 312.88086 C 296.82031 317.92117 298.89132 321.25195 302.85156 321.25195 C 304.89169 321.25195 306.4208 320.2311 307.38086 318.79102 L 307.65234 320.80078 L 311.04102 320.80078 L 311.04102 298.57031 L 307.20117 298.15039 z M 576.60352 298.15039 L 576.60352 306.19141 C 575.61346 305.20135 574.29338 304.48047 572.61328 304.48047 C 568.68304 304.48047 566.22266 307.99056 566.22266 312.88086 C 566.22266 317.92117 568.29171 321.25195 572.25195 321.25195 C 574.29208 321.25195 575.82314 320.2311 576.7832 318.79102 L 577.05273 320.80078 L 580.44336 320.80078 L 580.44336 298.57031 L 576.60352 298.15039 z M 405.05078 300.9707 L 401.21094 301.41992 L 401.21094 304.93164 L 398.7207 304.93164 L 398.7207 307.69141 L 401.21094 307.69141 L 401.21094 316.06055 C 401.21094 319.45075 402.86028 321.22195 405.98047 321.25195 C 407.39055 321.25195 408.83063 320.86083 409.9707 320.05078 L 408.62109 317.5918 C 407.93105 317.98182 407.33051 318.16211 406.73047 318.16211 C 405.5604 318.16211 405.05078 317.5308 405.05078 315.9707 L 405.05078 307.69141 L 408.35156 307.69141 L 408.74219 304.93164 L 405.05078 304.93164 L 405.05078 300.9707 z M 657.16602 300.9707 L 653.32617 301.41992 L 653.32617 304.93164 L 650.83594 304.93164 L 650.83594 307.69141 L 653.32617 307.69141 L 653.32617 316.06055 C 653.32617 319.45075 654.97551 321.22195 658.0957 321.25195 C 659.50579 321.25195 660.94587 320.86083 662.08594 320.05078 L 660.73633 317.5918 C 660.04629 317.98182 659.44574 318.16211 658.8457 318.16211 C 657.67563 318.16211 657.16602 317.5308 657.16602 315.9707 L 657.16602 307.69141 L 660.4668 307.69141 L 660.85742 304.93164 L 657.16602 304.93164 L 657.16602 300.9707 z M 256.74023 302.71094 C 254.82012 303.731 253.07835 304.57047 249.32812 304.48047 C 245.48789 304.48047 242.75781 306.73143 242.75781 310.18164 C 242.75781 312.22177 243.59871 313.63033 245.54883 314.65039 C 244.37876 315.37043 243.68945 316.48173 243.68945 317.5918 C 243.68945 319.2419 245.03856 320.65234 248.21875 320.65234 L 250.61914 320.65234 C 252.38925 320.65234 253.31836 321.37094 253.31836 322.54102 C 253.31836 323.80109 252.41831 324.64258 249.32812 324.64258 C 246.17793 324.64258 245.48828 323.95143 245.48828 322.36133 L 242.03906 322.36133 C 242.03906 325.54152 243.62919 327.3418 249.26953 327.3418 C 254.45985 327.3418 257.18945 325.45168 257.18945 322.27148 C 257.18945 319.66133 254.90865 317.77148 251.39844 317.77148 L 248.96875 317.77148 C 247.37865 317.77148 247.04883 317.23214 247.04883 316.66211 C 247.04883 316.18208 247.31896 315.7622 247.70898 315.49219 C 248.30902 315.6722 248.90957 315.73047 249.59961 315.73047 C 253.58985 315.73047 255.99023 313.48081 255.99023 310.39062 C 255.99023 308.4105 255.02949 307.1806 253.10938 306.31055 C 254.99949 306.31055 256.49915 306.19151 257.69922 305.77148 L 256.74023 302.71094 z M 201.55469 304.48047 C 199.54456 304.48047 197.95468 305.4099 196.72461 307 L 196.42578 304.93164 L 193.09375 304.93164 L 193.09375 320.80078 L 196.93555 320.80078 L 196.93555 309.76172 C 197.8656 308.29163 198.88554 307.36133 200.26562 307.36133 C 201.4657 307.36133 202.21484 307.93004 202.21484 309.91016 L 202.21484 320.80078 L 206.05469 320.80078 L 206.05469 309.31055 C 206.05469 306.28036 204.40486 304.48047 201.55469 304.48047 z M 233.42383 304.48047 C 231.62372 304.48047 229.61418 304.87105 227.66406 305.62109 L 228.56445 308.23047 C 230.15455 307.69044 231.68361 307.39062 232.76367 307.39062 C 234.8038 307.39062 235.73438 308.08026 235.73438 310.15039 L 235.73438 311.05078 L 233.75391 311.05078 C 229.13362 311.05078 226.52344 312.91112 226.52344 316.36133 C 226.52344 319.2415 228.4741 321.25195 231.6543 321.25195 C 233.54441 321.25195 235.28446 320.56096 236.39453 318.88086 C 237.02457 320.41095 238.16419 321.0414 239.9043 321.19141 L 240.71484 318.64062 C 239.9348 318.34061 239.51563 317.89164 239.51562 316.60156 L 239.51562 309.94141 C 239.51562 306.43119 237.65409 304.48047 233.42383 304.48047 z M 265.45703 304.48047 C 260.95676 304.48047 258.40625 308.14041 258.40625 312.9707 C 258.40625 317.98101 261.0465 321.25195 265.9668 321.25195 C 268.36694 321.25195 270.28756 320.38117 271.84766 319.12109 L 270.25781 316.93164 C 268.87773 317.8917 267.70696 318.3418 266.29688 318.3418 C 264.19675 318.3418 262.6665 317.29098 262.39648 314.05078 L 272.35742 314.05078 C 272.38742 313.63076 272.44727 313.00027 272.44727 312.49023 C 272.44727 307.47993 269.8973 304.48047 265.45703 304.48047 z M 280.90234 304.48047 C 277.21212 304.48047 274.7832 306.4614 274.7832 309.10156 C 274.7832 311.44171 276.22199 313.00034 279.49219 313.90039 C 282.46237 314.74044 283.09375 315.16039 283.09375 316.48047 C 283.09375 317.68054 281.98354 318.40234 280.27344 318.40234 C 278.65334 318.40234 277.1832 317.77185 275.95312 316.8418 L 274.0332 319.00195 C 275.50329 320.32203 277.63311 321.25195 280.36328 321.25195 C 283.9935 321.25195 287.05273 319.51114 287.05273 316.21094 C 287.05273 313.39077 285.22262 312.07122 281.98242 311.20117 C 279.28226 310.45113 278.65234 309.97194 278.65234 308.92188 C 278.65234 307.96182 279.52264 307.33008 281.05273 307.33008 C 282.46282 307.33008 283.72289 307.78104 285.04297 308.62109 L 286.54297 306.37109 C 285.04288 305.20102 283.18248 304.48047 280.90234 304.48047 z M 321.71094 304.48047 C 317.21066 304.48047 314.66016 308.14041 314.66016 312.9707 C 314.66016 317.98101 317.3004 321.25195 322.2207 321.25195 C 324.62085 321.25195 326.54147 320.38117 328.10156 319.12109 L 326.51172 316.93164 C 325.13163 317.8917 323.96087 318.3418 322.55078 318.3418 C 320.45065 318.3418 318.92041 317.29098 318.65039 314.05078 L 328.61133 314.05078 C 328.64133 313.63076 328.70117 313.00027 328.70117 312.49023 C 328.70117 307.47993 326.15121 304.48047 321.71094 304.48047 z M 347.86719 304.48047 C 346.15708 304.48047 344.47687 305.23076 343.2168 306.88086 L 343.00586 304.93164 L 339.64648 304.93164 L 339.64648 327.3418 L 343.48633 326.92188 L 343.48633 319.51172 C 344.47639 320.68179 345.85646 321.25195 347.47656 321.25195 C 351.49681 321.25195 353.74805 317.68061 353.74805 312.82031 C 353.74805 307.75 352.00744 304.48047 347.86719 304.48047 z M 364 304.48047 C 359.28971 304.48047 356.49805 307.87126 356.49805 312.85156 C 356.49805 318.07188 359.28846 321.25195 363.96875 321.25195 C 368.64904 321.25195 371.43945 317.86187 371.43945 312.85156 C 371.43945 307.66125 368.68029 304.48047 364 304.48047 z M 391.9375 304.48047 C 389.92738 304.48047 388.3375 305.4099 387.10742 307 L 386.80664 304.93164 L 383.47656 304.93164 L 383.47656 320.80078 L 387.31836 320.80078 L 387.31836 309.76172 C 388.24842 308.29163 389.26835 307.36133 390.64844 307.36133 C 391.84851 307.36133 392.59766 307.93004 392.59766 309.91016 L 392.59766 320.80078 L 396.4375 320.80078 L 396.4375 309.31055 C 396.4375 306.28036 394.78767 304.48047 391.9375 304.48047 z M 417.14258 304.48047 C 413.45235 304.48047 411.02148 306.4614 411.02148 309.10156 C 411.02148 311.44171 412.46222 313.00034 415.73242 313.90039 C 418.7026 314.74044 419.33203 315.16039 419.33203 316.48047 C 419.33203 317.68054 418.22182 318.40234 416.51172 318.40234 C 414.89162 318.40234 413.42148 317.77185 412.19141 316.8418 L 410.27148 319.00195 C 411.74157 320.32203 413.8714 321.25195 416.60156 321.25195 C 420.23178 321.25195 423.29297 319.51114 423.29297 316.21094 C 423.29297 313.39077 421.46285 312.07122 418.22266 311.20117 C 415.52249 310.45113 414.89258 309.97194 414.89258 308.92188 C 414.89258 307.96182 415.76092 307.33008 417.29102 307.33008 C 418.7011 307.33008 419.96117 307.78104 421.28125 308.62109 L 422.78125 306.37109 C 421.28116 305.20102 419.42272 304.48047 417.14258 304.48047 z M 556.32617 304.48047 C 554.52606 304.48047 552.51457 304.87105 550.56445 305.62109 L 551.46484 308.23047 C 553.05494 307.69044 554.58595 307.39062 555.66602 307.39062 C 557.70614 307.39062 558.63477 308.08026 558.63477 310.15039 L 558.63477 311.05078 L 556.65625 311.05078 C 552.03597 311.05078 549.42578 312.91112 549.42578 316.36133 C 549.42578 319.2415 551.37449 321.25195 554.55469 321.25195 C 556.4448 321.25195 558.18485 320.56096 559.29492 318.88086 C 559.92496 320.41095 561.06653 321.0414 562.80664 321.19141 L 563.61523 318.64258 C 562.83519 318.34256 562.41602 317.89164 562.41602 316.60156 L 562.41602 309.94141 C 562.41602 306.43119 560.55643 304.48047 556.32617 304.48047 z M 600 304.48047 C 595.28971 304.48047 592.5 307.87126 592.5 312.85156 C 592.5 318.07188 595.29042 321.25195 599.9707 321.25195 C 604.65099 321.25195 607.44141 317.86187 607.44141 312.85156 C 607.44141 307.66125 604.68029 304.48047 600 304.48047 z M 619.26172 304.48047 C 617.2516 304.48047 615.80999 305.4099 614.66992 307 L 614.37109 304.93164 L 611.04102 304.93164 L 611.04102 320.80078 L 614.88086 320.80078 L 614.88086 309.76172 C 615.75091 308.29163 616.56007 307.36133 617.91016 307.36133 C 618.84021 307.36133 619.65039 307.93004 619.65039 309.91016 L 619.65039 320.80078 L 623.49219 320.80078 L 623.49219 309.76172 C 624.36224 308.29163 625.17211 307.36133 626.49219 307.36133 C 627.45225 307.36133 628.23242 307.93004 628.23242 309.91016 L 628.23242 320.80078 L 632.07227 320.80078 L 632.07227 309.31055 C 632.07227 306.31036 630.39125 304.48047 627.87109 304.48047 C 625.77097 304.48047 624.30164 305.50029 623.10156 307.15039 C 622.50153 305.47029 621.12183 304.48047 619.26172 304.48047 z M 642.56055 304.48047 C 638.06027 304.48047 635.50977 308.14041 635.50977 312.9707 C 635.50977 317.98101 638.15001 321.25195 643.07031 321.25195 C 645.47046 321.25195 647.39108 320.38117 648.95117 319.12109 L 647.36133 316.93164 C 645.98124 317.8917 644.81048 318.3418 643.40039 318.3418 C 641.30026 318.3418 639.77002 317.29098 639.5 314.05078 L 649.46094 314.05078 C 649.49094 313.63076 649.55078 313.00222 649.55078 312.49219 C 649.55078 307.48188 647.00082 304.48047 642.56055 304.48047 z M 690.04102 304.48047 C 686.11078 304.48047 683.65234 307.99056 683.65234 312.88086 C 683.65234 317.92117 685.7214 321.25195 689.68164 321.25195 C 691.60176 321.25195 693.04119 320.35204 694.03125 319.00195 L 694.03125 326.92188 L 697.87305 327.3418 L 697.87305 304.93164 L 694.54297 304.93164 L 694.33203 306.49023 C 693.22196 305.23016 691.84113 304.48047 690.04102 304.48047 z M 725.82812 304.48047 C 721.32785 304.48047 718.77734 308.14041 718.77734 312.9707 C 718.77734 317.98101 721.41759 321.25195 726.33789 321.25195 C 728.73804 321.25195 730.65865 320.38117 732.21875 319.12109 L 730.62695 316.93164 C 729.24687 317.8917 728.07805 318.3418 726.66797 318.3418 C 724.56784 318.3418 723.03759 317.29098 722.76758 314.05078 L 732.72852 314.05078 C 732.75852 313.63076 732.81836 313.00222 732.81836 312.49219 C 732.81836 307.48188 730.2684 304.48047 725.82812 304.48047 z M 741.27344 304.48047 C 737.58321 304.48047 735.15234 306.4614 735.15234 309.10156 C 735.15234 311.44171 736.59308 313.00034 739.86328 313.90039 C 742.83346 314.74044 743.46289 315.16234 743.46289 316.48242 C 743.46289 317.6825 742.35268 318.40234 740.64258 318.40234 C 739.02248 318.40234 737.55234 317.77185 736.32227 316.8418 L 734.40234 319.00195 C 735.87243 320.32203 738.00226 321.25195 740.73242 321.25195 C 744.36264 321.25195 747.42383 319.51114 747.42383 316.21094 C 747.42383 313.39077 745.59371 312.07122 742.35352 311.20117 C 739.65335 310.45113 739.02344 309.97194 739.02344 308.92188 C 739.02344 307.96182 739.89373 307.33008 741.42383 307.33008 C 742.83391 307.33008 744.09398 307.78104 745.41406 308.62109 L 746.91406 306.37109 C 745.41397 305.20102 743.55358 304.48047 741.27344 304.48047 z M 547.73438 304.51172 C 545.87426 304.51172 544.3438 305.77064 543.59375 308.05078 L 543.23438 304.93164 L 539.9043 304.93164 L 539.9043 320.80078 L 543.74414 320.80078 L 543.74414 312.3418 C 544.34418 309.67163 545.33379 308.26172 547.25391 308.26172 C 547.79394 308.26172 548.18403 308.3214 548.66406 308.44141 L 549.32422 304.7207 C 548.81419 304.57069 548.30441 304.51172 547.73438 304.51172 z M 672.07812 304.51172 C 670.21801 304.51172 668.68755 305.77064 667.9375 308.05078 L 667.57617 304.93164 L 664.24609 304.93164 L 664.24609 320.80078 L 668.08789 320.80078 L 668.08789 312.3418 C 668.68793 309.67163 669.67754 308.26172 671.59766 308.26172 C 672.13769 308.26172 672.52778 308.3214 673.00781 308.44141 L 673.66797 304.7207 C 673.15794 304.57069 672.64816 304.51172 672.07812 304.51172 z M 210.34766 304.93164 L 210.34766 316.33203 C 210.34766 319.39222 211.90889 321.25195 214.78906 321.25195 C 216.94919 321.25195 218.47837 320.38214 219.64844 318.58203 L 219.85938 320.80078 L 223.18945 320.80078 L 223.18945 304.93164 L 219.34961 304.93164 L 219.34961 316.0918 C 218.50956 317.47188 217.42875 318.3418 216.13867 318.3418 C 214.81859 318.3418 214.1875 317.71168 214.1875 315.85156 L 214.1875 304.93164 L 210.34766 304.93164 z M 375.03906 304.93164 L 375.03906 320.80078 L 378.87891 320.80078 L 378.87891 304.93164 L 375.03906 304.93164 z M 585.08203 304.93164 L 585.08203 320.80078 L 588.92188 320.80078 L 588.92188 304.93164 L 585.08203 304.93164 z M 676.08398 304.93164 L 676.08398 320.80078 L 679.92383 320.80078 L 679.92383 304.93164 L 676.08398 304.93164 z M 702.36133 304.93164 L 702.36133 316.33203 C 702.36133 319.39222 703.92061 321.25195 706.80078 321.25195 C 708.96091 321.25195 710.49204 320.38214 711.66211 318.58203 L 711.87109 320.80078 L 715.20117 320.80078 L 715.20117 304.93164 L 711.36133 304.93164 L 711.36133 316.0918 C 710.52128 317.47188 709.44047 318.3418 708.15039 318.3418 C 706.83031 318.3418 706.20117 317.71168 706.20117 315.85156 L 706.20117 304.93164 L 702.36133 304.93164 z M 249.38867 307.0918 C 251.30879 307.0918 252.26953 308.08167 252.26953 310.0918 C 252.26953 312.10192 251.27933 313.24219 249.44922 313.24219 C 247.67911 313.24219 246.62891 312.04121 246.62891 310.12109 C 246.62891 308.29098 247.64857 307.0918 249.38867 307.0918 z M 265.54688 307.21094 C 267.70701 307.21094 268.63672 308.7707 268.63672 311.38086 L 268.63672 311.56055 L 262.39648 311.56055 C 262.6065 308.41035 263.74677 307.21094 265.54688 307.21094 z M 321.80078 307.21094 C 323.96091 307.21094 324.89063 308.7707 324.89062 311.38086 L 324.89062 311.56055 L 318.65039 311.56055 C 318.8604 308.41035 320.00067 307.21094 321.80078 307.21094 z M 642.65039 307.21094 C 644.81052 307.21094 645.74023 308.7707 645.74023 311.38086 L 645.74023 311.56055 L 639.5 311.56055 C 639.71001 308.41035 640.85028 307.21094 642.65039 307.21094 z M 725.91797 307.21094 C 728.0781 307.21094 729.00781 308.7707 729.00781 311.38086 L 729.00781 311.56055 L 722.76758 311.56055 C 722.97759 308.41035 724.11786 307.21094 725.91797 307.21094 z M 304.17188 307.36133 C 305.46195 307.36133 306.36112 308.02095 307.20117 309.04102 L 307.20117 316.30078 C 306.30112 317.65086 305.34173 318.3418 303.93164 318.3418 C 302.04153 318.3418 300.87109 316.93181 300.87109 312.85156 C 300.87109 309.04133 302.19175 307.36133 304.17188 307.36133 z M 346.72656 307.36133 C 348.64668 307.36133 349.72656 308.83132 349.72656 312.85156 C 349.72656 316.6918 348.49661 318.31055 346.39648 318.31055 C 345.19641 318.31055 344.23637 317.77218 343.48633 316.66211 L 343.48633 309.52148 C 344.23637 308.29141 345.37648 307.36133 346.72656 307.36133 z M 573.57227 307.36133 C 574.86234 307.36133 575.76346 308.02095 576.60352 309.04102 L 576.60352 316.30078 C 575.70346 317.65086 574.74212 318.3418 573.33203 318.3418 C 571.44192 318.3418 570.27344 316.93181 570.27344 312.85156 C 570.27344 309.04133 571.59214 307.36133 573.57227 307.36133 z M 691.03125 307.36133 C 692.32133 307.36133 693.1912 308.02095 694.03125 309.04102 L 694.03125 316.30078 C 693.1312 317.65086 692.1718 318.3418 690.76172 318.3418 C 688.8716 318.3418 687.70117 316.93181 687.70117 312.85156 C 687.70117 309.04133 689.02113 307.36133 691.03125 307.36133 z M 364 307.39062 C 366.22014 307.39062 367.38867 309.07133 367.38867 312.85156 C 367.38867 316.63179 366.21889 318.3418 363.96875 318.3418 C 361.71861 318.3418 360.54883 316.6618 360.54883 312.85156 C 360.54883 309.10133 361.74986 307.39062 364 307.39062 z M 600 307.39062 C 602.22014 307.39062 603.39062 309.07133 603.39062 312.85156 C 603.39062 316.63179 602.22084 318.3418 599.9707 318.3418 C 597.72057 318.3418 596.55078 316.6618 596.55078 312.85156 C 596.55078 309.10133 597.74986 307.39062 600 307.39062 z M 234.14453 313.30078 L 235.73438 313.30078 L 235.73438 316.51172 C 235.01433 317.7718 234.02391 318.46094 232.67383 318.46094 C 231.20374 318.46094 230.42383 317.59064 230.42383 316.06055 C 230.42383 314.20043 231.65438 313.30078 234.14453 313.30078 z M 557.04492 313.30078 L 558.63477 313.30078 L 558.63477 316.51172 C 557.91472 317.7718 556.92625 318.46094 555.57617 318.46094 C 554.10608 318.46094 553.32617 317.59064 553.32617 316.06055 C 553.32617 314.20043 554.55477 313.30078 557.04492 313.30078 z "
       transform="matrix(0.26458333,0,0,0.26458333,0,137)"
       id="flowRoot4945" />
    <path
       style="opacity:1;fill:none;fill-opacity:1;fill-rule:nonzero;stroke:#000000;stroke-width:3.54352331;stroke-linecap:round;stroke-linejoin:round;stroke-miterlimit:4;stroke-dasharray:none;stroke-dashoffset:0;stroke-opacity:1;paint-order:normal"
       d="M 532.38281 244.58984 C 520.31517 244.58984 510.59961 254.30541 510.59961 266.37305 L 510.59961 320.35742 C 510.59961 332.42506 520.31517 342.13867 532.38281 342.13867 L 749.26172 342.13867 C 761.32936 342.13867 771.04492 332.42506 771.04492 320.35742 L 771.04492 266.37305 C 771.04492 254.30541 761.32936 244.58984 749.26172 244.58984 L 532.38281 244.58984 z M 198.53711 245.53711 C 186.46947 245.53711 176.75586 255.25267 176.75586 267.32031 L 176.75586 319.41016 C 176.75586 331.4778 186.46947 341.19141 198.53711 341.19141 L 415.41797 341.19141 C 427.48561 341.19141 437.20117 331.4778 437.20117 319.41016 L 437.20117 267.32031 C 437.20117 255.25267 427.48561 245.53711 415.41797 245.53711 L 198.53711 245.53711 z M 863.83008 262.11133 C 851.76244 262.11133 842.04883 271.82689 842.04883 283.89453 L 842.04883 302.83594 C 842.04883 314.90358 851.76244 324.61914 863.83008 324.61914 L 1039.9863 324.61914 C 1052.054 324.61914 1061.7695 314.90358 1061.7695 302.83594 L 1061.7695 283.89453 C 1061.7695 271.82689 1052.054 262.11133 1039.9863 262.11133 L 863.83008 262.11133 z "
       transform="matrix(0.26458333,0,0,0.26458333,0,137)"
       id="rect5008" />
    <g
       id="g8151">
      <path
         style="color:#000000;font-style:normal;font-variant:normal;font-weight:normal;font-stretch:normal;font-size:medium;line-height:normal;font-family:sans-serif;font-variant-ligatures:normal;font-variant-position:normal;font-variant-caps:normal;font-variant-numeric:normal;font-variant-alternates:normal;font-feature-settings:normal;text-indent:0;text-align:start;text-decoration:none;text-decoration-line:none;text-decoration-style:solid;text-decoration-color:#000000;letter-spacing:normal;word-spacing:normal;text-transform:none;writing-mode:lr-tb;direction:ltr;text-orientation:mixed;dominant-baseline:auto;baseline-shift:baseline;text-anchor:start;white-space:normal;shape-padding:0;clip-rule:nonzero;display:inline;overflow:visible;visibility:visible;opacity:1;isolation:auto;mix-blend-mode:normal;color-interpolation:sRGB;color-interpolation-filters:linearRGB;solid-color:#000000;solid-opacity:1;vector-effect:none;fill:#000000;fill-opacity:1;fill-rule:nonzero;stroke:none;stroke-width:1.87511456;stroke-linecap:butt;stroke-linejoin:miter;stroke-miterlimit:4;stroke-dasharray:none;stroke-dashoffset:0;stroke-opacity:1;color-rendering:auto;image-rendering:auto;shape-rendering:auto;text-rendering:auto;enable-background:accumulate"
         d="m 115.97656,213.68164 v 1.875 h 13.53711 v -1.875 z"
         id="path4487-3"
         inkscape:connector-curvature="0" />
      <path
         style="fill:#000000;fill-opacity:1;fill-rule:evenodd;stroke:#000000;stroke-width:0.37502293pt;stroke-opacity:1"
         d="m 131.67691,214.6195 -3.24395,1.87511 v -3.75022 z"
         id="path8157"
         inkscape:connector-curvature="0" />
    </g>
    <g
       id="g8143">
      <path
         style="color:#000000;font-style:normal;font-variant:normal;font-weight:normal;font-stretch:normal;font-size:medium;line-height:normal;font-family:sans-serif;font-variant-ligatures:normal;font-variant-position:normal;font-variant-caps:normal;font-variant-numeric:normal;font-variant-alternates:normal;font-feature-settings:normal;text-indent:0;text-align:start;text-decoration:none;text-decoration-line:none;text-decoration-style:solid;text-decoration-color:#000000;letter-spacing:normal;word-spacing:normal;text-transform:none;writing-mode:lr-tb;direction:ltr;text-orientation:mixed;dominant-baseline:auto;baseline-shift:baseline;text-anchor:start;white-space:normal;shape-padding:0;clip-rule:nonzero;display:inline;overflow:visible;visibility:visible;opacity:1;isolation:auto;mix-blend-mode:normal;color-interpolation:sRGB;color-interpolation-filters:linearRGB;solid-color:#000000;solid-opacity:1;vector-effect:none;fill:#000000;fill-opacity:1;fill-rule:nonzero;stroke:none;stroke-width:1.87511456;stroke-linecap:butt;stroke-linejoin:miter;stroke-miterlimit:4;stroke-dasharray:none;stroke-dashoffset:0;stroke-opacity:1;color-rendering:auto;image-rendering:auto;shape-rendering:auto;text-rendering:auto;enable-background:accumulate"
         d="m 204.04883,213.68164 v 1.875 h 13.53711 v -1.875 z"
         id="path4487-3-4"
         inkscape:connector-curvature="0" />
      <path
         style="fill:#000000;fill-opacity:1;fill-rule:evenodd;stroke:#000000;stroke-width:0.37502293pt;stroke-opacity:1"
         d="m 219.75025,214.6195 -3.24395,1.87511 v -3.75022 z"
         id="path8149"
         inkscape:connector-curvature="0" />
    </g>
    <g
       id="g8129">
      <path
         style="color:#000000;font-style:normal;font-variant:normal;font-weight:normal;font-stretch:normal;font-size:medium;line-height:normal;font-family:sans-serif;font-variant-ligatures:normal;font-variant-position:normal;font-variant-caps:normal;font-variant-numeric:normal;font-variant-alternates:normal;font-feature-settings:normal;text-indent:0;text-align:start;text-decoration:none;text-decoration-line:none;text-decoration-style:solid;text-decoration-color:#000000;letter-spacing:normal;word-spacing:normal;text-transform:none;writing-mode:lr-tb;direction:ltr;text-orientation:mixed;dominant-baseline:auto;baseline-shift:baseline;text-anchor:start;white-space:normal;shape-padding:0;clip-rule:nonzero;display:inline;overflow:visible;visibility:visible;opacity:1;isolation:auto;mix-blend-mode:normal;color-interpolation:sRGB;color-interpolation-filters:linearRGB;solid-color:#000000;solid-opacity:1;vector-effect:none;fill:#000000;fill-opacity:1;fill-rule:nonzero;stroke:none;stroke-width:1.87511456;stroke-linecap:butt;stroke-linejoin:miter;stroke-miterlimit:4;stroke-dasharray:none;stroke-dashoffset:0;stroke-opacity:1;color-rendering:auto;image-rendering:auto;shape-rendering:auto;text-rendering:auto;enable-background:accumulate"
         d="m 281.1582,213.68164 v 1.875 h 13.53711 v -1.875 z"
         id="path4487-3-4-2"
         inkscape:connector-curvature="0" />
      <path
         style="fill:#000000;fill-opacity:1;fill-rule:evenodd;stroke:#000000;stroke-width:0.37502293pt;stroke-opacity:1"
         d="m 296.85875,214.6195 -3.24395,1.87511 v -3.75022 z"
         id="path8135"
         inkscape:connector-curvature="0" />
    </g>
    <path
       style="opacity:1;fill:#000000;fill-opacity:1;fill-rule:nonzero;stroke:none;stroke-width:5.6696372;stroke-linecap:round;stroke-linejoin:round;stroke-miterlimit:4;stroke-dasharray:none;stroke-dashoffset:0;stroke-opacity:1;paint-order:normal"
       d="M 1160.5625 258.54102 A 34.823556 34.823556 0 0 0 1125.7363 293.36328 A 34.823556 34.823556 0 0 0 1160.5625 328.1875 A 34.823556 34.823556 0 0 0 1195.3867 293.36328 A 34.823556 34.823556 0 0 0 1160.5625 258.54102 z M 1160.5664 263.79688 C 1176.8664 263.79688 1190.1211 277.06327 1190.1211 293.36328 C 1190.1211 309.66325 1176.8664 322.92969 1160.5664 322.92969 C 1144.2664 322.92969 1131 309.66325 1131 293.36328 C 1131 277.06327 1144.2664 263.79688 1160.5664 263.79688 z M 1160.5664 268.44922 C 1146.7791 268.44922 1135.6504 279.57598 1135.6504 293.36328 C 1135.6504 307.15054 1146.7791 318.28125 1160.5664 318.28125 C 1174.3537 318.28125 1185.4805 307.15054 1185.4805 293.36328 C 1185.4805 279.57598 1174.3537 268.44922 1160.5664 268.44922 z "
       transform="matrix(0.26458333,0,0,0.26458333,0,137)"
       id="path4485-2" />
  </g>
</svg>
